<svg id="Capa_1" enable-background="new 0 0 512 512" viewBox="0 0 512 512" xmlns="http://www.w3.org/2000/svg"><path d="m426.729 272h-30l-30 60h-35.729c0-21.372 0-126.088 0-150h-30v50.729l-31.73-15.865-30.973-154.864h-81.567l-30 60h-63.437l-31.276 187.658-32.017 30.984v171.358h512v-300h-55.271zm-305.729 210v-120h-30v120h-61v-128.642l29.983-29.016 28.724-172.342h32.293v81.213l60 60v128.787h30v-141.213l-60-60v-80.246l24.271-48.541h38.433l29.027 145.136 58.269 29.135v145.271l46.973 70.458zm361-240v240h-97.973l-53.027-79.542v-40.458h54.271l30-60h30l30-60z"/><path d="m437 150c41.355 0 75-33.645 75-75s-33.645-75-75-75-75 33.645-75 75 33.645 75 75 75zm0-120c24.813 0 45 20.187 45 45s-20.187 45-45 45-45-20.187-45-45 20.187-45 45-45z"/></svg> 